# File produced by Open Asset Import Library (http://www.assimp.sf.net)
# (assimp v3.1.162486261)

mtllib Platform.mtl

# vertex positions
v 5700.000000 7.315761 -4500.000000
v -5700.000000 7.315761 -4500.000000
v -5700.000000 7.317227 4500.000000
v 5700.000000 7.317227 4500.000000
v 5700.000000 -7.315761 4500.000000
v -5700.000000 -7.315761 4500.000000
v 5700.000000 -7.317227 -4500.000000

# UV coordinates
vt 0.000089 0.998629
vt 0.000089 0.000089
vt 0.788410 0.000089
vt 0.788410 0.998629
vt 0.789692 0.998629
vt 0.789692 0.000089
vt 0.000089 0.999911
vt 0.788410 0.999911

# vertex normals
vn 0.000000 1.000000 -0.000000
vn 0.000000 0.000000 1.000000
vn 1.000000 0.000000 0.000000

# Mesh
g Cube
usemtl Material
f 4/4/1 1/1/1 2/2/1
f 2/2/1 3/3/1 4/4/1
f 6/6/2 5/5/2 4/4/2
f 4/4/2 3/3/2 6/6/2
f 5/8/3 7/7/3 1/1/3
f 1/1/3 4/4/3 5/8/3
