# Blender 4.2.2 LTS
# www.blender.org
mtllib Bullet.mtl
o Sphere
v 0.008738 4.037443 3.459381
v 0.016147 4.074686 3.404234
v 0.021096 4.099571 3.321701
v 0.015451 4.071187 2.974328
v 0.014275 4.065275 2.818005
v 0.010925 4.048437 2.685481
v 0.005913 4.023237 2.596930
v 0.017141 4.034894 3.459381
v 0.031672 4.069976 3.404234
v 0.041382 4.093417 3.321701
v 0.030308 4.066681 2.974328
v 0.028001 4.061111 2.818005
v 0.021431 4.045250 2.685481
v 0.011598 4.021513 2.596930
v 0.037243 4.018397 3.459381
v 0.068816 4.039493 3.404234
v 0.089912 4.053589 3.321701
v 0.065850 4.037512 2.974328
v 0.060838 4.034163 2.818005
v 0.046563 4.024624 2.685481
v 0.025200 4.010350 2.596930
v 0.000000 3.993512 3.478746
v 0.041382 4.010653 3.459381
v 0.076464 4.025185 3.404234
v 0.099905 4.034894 3.321701
v 0.073169 4.023819 2.974328
v 0.067599 4.021513 2.818005
v 0.051738 4.014943 2.685481
v 0.028001 4.005110 2.596930
v 0.043931 3.984774 3.459381
v 0.081174 3.977365 3.404234
v 0.106059 3.972416 3.321701
v 0.077676 3.978061 2.974328
v 0.071763 3.979238 2.818005
v 0.054925 3.982587 2.685481
v 0.029725 3.987599 2.596930
v 0.041382 3.976371 3.459381
v 0.076464 3.961840 3.404234
v 0.099905 3.952130 3.321701
v 0.073169 3.963205 2.974328
v 0.067599 3.965512 2.818005
v 0.051738 3.972081 2.685481
v 0.028001 3.981914 2.596930
v 0.024885 3.956269 3.459381
v 0.045981 3.924696 3.404234
v 0.060077 3.903600 3.321701
v 0.044000 3.927662 2.974328
v 0.040650 3.932674 2.818005
v 0.031112 3.946949 2.685481
v 0.016838 3.968312 2.596930
v 0.017141 3.952130 3.459381
v 0.031672 3.917048 3.404234
v 0.041382 3.893607 3.321701
v 0.030307 3.920343 2.974328
v 0.028001 3.925913 2.818005
v 0.021431 3.941774 2.685481
v 0.011598 3.965512 2.596930
v -0.008738 3.949581 3.459381
v -0.016146 3.912338 3.404234
v -0.021096 3.887453 3.321701
v -0.015451 3.915837 2.974328
v -0.014274 3.921749 2.818005
v -0.010925 3.938587 2.685481
v -0.005913 3.963787 2.596930
v -0.017141 3.952130 3.459381
v -0.031672 3.917048 3.404234
v -0.041382 3.893607 3.321701
v -0.030307 3.920343 2.974328
v -0.028000 3.925913 2.818005
v -0.021431 3.941774 2.685481
v -0.011598 3.965512 2.596930
v 0.000000 3.993512 2.565836
v -0.037243 3.968627 3.459381
v -0.068816 3.947531 3.404234
v -0.089912 3.933435 3.321701
v -0.065850 3.949512 2.974328
v -0.060838 3.952862 2.818005
v -0.046563 3.962400 2.685481
v -0.025200 3.976674 2.596930
v -0.041382 3.976371 3.459381
v -0.076464 3.961840 3.404234
v -0.099905 3.952130 3.321701
v -0.073169 3.963205 2.974328
v -0.067599 3.965512 2.818005
v -0.051738 3.972081 2.685481
v -0.028000 3.981914 2.596930
v -0.043931 4.002250 3.459381
v -0.081174 4.009658 3.404234
v -0.106059 4.014608 3.321701
v -0.077675 4.008963 2.974328
v -0.071763 4.007787 2.818005
v -0.054925 4.004437 2.685481
v -0.029725 3.999425 2.596930
v -0.041382 4.010653 3.459381
v -0.076464 4.025185 3.404234
v -0.099905 4.034894 3.321701
v -0.073169 4.023819 2.974328
v -0.067599 4.021513 2.818005
v -0.051738 4.014943 2.685481
v -0.028000 4.005110 2.596930
v -0.024885 4.030755 3.459381
v -0.045981 4.062328 3.404234
v -0.060077 4.083424 3.321701
v -0.044000 4.059362 2.974328
v -0.040650 4.054349 2.818005
v -0.031112 4.040075 2.685481
v -0.016838 4.018712 2.596930
v -0.017141 4.034894 3.459381
v -0.031672 4.069976 3.404234
v -0.041382 4.093417 3.321701
v -0.030307 4.066681 2.974328
v -0.028000 4.061111 2.818005
v -0.021431 4.045250 2.685481
v -0.011598 4.021513 2.596930
v 0.022835 4.108309 3.224346
v 0.044792 4.101648 3.224346
v 0.097320 4.058539 3.224346
v 0.108137 4.038303 3.224346
v 0.114797 3.970677 3.224346
v 0.108136 3.948720 3.224346
v 0.065027 3.896192 3.224346
v 0.044792 3.885375 3.224346
v -0.022835 3.878715 3.224346
v -0.044792 3.885376 3.224346
v -0.097320 3.928485 3.224346
v -0.108136 3.948720 3.224346
v -0.114797 4.016346 3.224346
v -0.108136 4.038304 3.224346
v -0.065027 4.090832 3.224346
v -0.044791 4.101648 3.224346
v 0.011259 4.063643 3.489501
v 0.019704 4.110648 3.421383
v 0.024986 4.138638 3.329356
v 0.019385 4.110817 2.970584
v 0.018208 4.104942 2.814682
v 0.014797 4.087417 2.677383
v 0.009340 4.057938 2.577332
v 0.029601 4.058079 3.489501
v 0.048694 4.101854 3.421383
v 0.059852 4.128062 3.329356
v 0.049053 4.101818 2.970584
v 0.046768 4.096279 2.814682
v 0.039868 4.079812 2.677383
v 0.028027 4.052269 2.577332
v 0.057551 4.035141 3.489501
v 0.096760 4.062407 3.421383
v 0.120288 4.078464 3.329356
v 0.096655 4.062752 2.970584
v 0.091668 4.059430 2.814682
v 0.076864 4.049450 2.677383
v 0.052161 4.032464 2.577332
v 0.000000 3.993512 3.518746
v 0.066587 4.018237 3.489501
v 0.111041 4.035689 3.421383
v 0.137463 4.046331 3.329356
v 0.111269 4.035410 2.970584
v 0.105737 4.033109 2.814682
v 0.089214 4.026345 2.677383
v 0.061366 4.015242 2.577332
v 0.070131 3.982253 3.489501
v 0.117136 3.973808 3.421383
v 0.145126 3.968526 3.329356
v 0.117305 3.974127 2.970584
v 0.111430 3.975304 2.814682
v 0.093905 3.978715 2.677383
v 0.064426 3.984172 2.577332
v 0.064567 3.963911 3.489501
v 0.108342 3.944818 3.421383
v 0.134550 3.933660 3.329356
v 0.108305 3.944459 2.970584
v 0.102767 3.946744 2.814682
v 0.086300 3.953645 2.677383
v 0.058757 3.965485 2.577332
v 0.041629 3.935961 3.489501
v 0.068895 3.896752 3.421383
v 0.084952 3.873224 3.329356
v 0.069240 3.896858 2.970584
v 0.065918 3.901844 2.814682
v 0.055938 3.916648 2.677383
v 0.038951 3.941351 2.577332
v 0.024724 3.926925 3.489501
v 0.042177 3.882471 3.421383
v 0.052819 3.856049 3.329356
v 0.041898 3.882243 2.970584
v 0.039597 3.887775 2.814682
v 0.032833 3.904298 2.677383
v 0.021730 3.932146 2.577332
v -0.011259 3.923381 3.489501
v -0.019704 3.876376 3.421383
v -0.024986 3.848386 3.329356
v -0.019385 3.876207 2.970584
v -0.018208 3.882082 2.814682
v -0.014797 3.899607 2.677383
v -0.009340 3.929086 2.577332
v -0.029601 3.928945 3.489501
v -0.048694 3.885170 3.421383
v -0.059852 3.858962 3.329356
v -0.049053 3.885207 2.970584
v -0.046768 3.890746 2.814682
v -0.039867 3.907212 2.677383
v -0.028027 3.934755 2.577332
v 0.000000 3.993512 2.525836
v -0.057551 3.951883 3.489501
v -0.096760 3.924617 3.421383
v -0.120288 3.908561 3.329356
v -0.096654 3.924272 2.970584
v -0.091668 3.927594 2.814682
v -0.076864 3.937574 2.677383
v -0.052161 3.954561 2.577332
v -0.066587 3.968788 3.489501
v -0.111041 3.951335 3.421383
v -0.137463 3.940693 3.329356
v -0.111269 3.951614 2.970584
v -0.105737 3.953915 2.814682
v -0.089214 3.960680 2.677383
v -0.061366 3.971782 2.577332
v -0.070131 4.004771 3.489501
v -0.117136 4.013216 3.421383
v -0.145126 4.018498 3.329356
v -0.117305 4.012897 2.970584
v -0.111430 4.011720 2.814682
v -0.093905 4.008309 2.677383
v -0.064426 4.002852 2.577332
v -0.064567 4.023113 3.489501
v -0.108342 4.042206 3.421383
v -0.134550 4.053364 3.329356
v -0.108305 4.042565 2.970584
v -0.102766 4.040280 2.814682
v -0.086300 4.033380 2.677383
v -0.058757 4.021539 2.577332
v -0.041629 4.051063 3.489501
v -0.068895 4.090272 3.421383
v -0.084951 4.113800 3.329356
v -0.069240 4.090167 2.970584
v -0.065918 4.085180 2.814682
v -0.055938 4.070376 2.677383
v -0.038951 4.045672 2.577332
v -0.024724 4.060099 3.489501
v -0.042177 4.104553 3.421383
v -0.052819 4.130975 3.329356
v -0.041898 4.104781 2.970584
v -0.039597 4.099249 2.814682
v -0.032833 4.082726 2.677383
v -0.021730 4.054878 2.577332
v 0.026810 4.148094 3.223182
v 0.063590 4.136937 3.223182
v 0.128263 4.083861 3.223182
v 0.146382 4.049964 3.223182
v 0.154582 3.966702 3.223182
v 0.143425 3.929922 3.223182
v 0.090349 3.865249 3.223182
v 0.056452 3.847131 3.223182
v -0.026809 3.838930 3.223182
v -0.063590 3.850087 3.223182
v -0.128263 3.903163 3.223182
v -0.146381 3.937060 3.223182
v -0.154582 4.020321 3.223182
v -0.143425 4.057102 3.223182
v -0.090349 4.121775 3.223182
v -0.056452 4.139894 3.223182
vn 0.0625 0.6532 0.7546
vn 0.0892 0.8999 0.4268
vn 0.0972 0.9769 0.1903
vn 0.0969 0.9908 -0.0944
vn 0.0982 0.9917 -0.0827
vn 0.0967 0.9747 -0.2014
vn 0.0862 0.8679 -0.4892
vn 0.3109 0.5778 0.7546
vn 0.4258 0.7978 0.4268
vn 0.4619 0.8663 0.1903
vn 0.4699 0.8776 -0.0944
vn 0.4693 0.8791 -0.0827
vn 0.4611 0.8642 -0.2014
vn 0.4105 0.7695 -0.4892
vn 0.5061 0.4176 0.7546
vn 0.6994 0.5733 0.4268
vn 0.7595 0.6220 0.1903
vn 0.7691 0.6321 -0.0944
vn 0.7707 0.6318 -0.0827
vn 0.7576 0.6209 -0.2014
vn 0.6747 0.5527 -0.4892
vn -0.0000 -0.0000 1.0000
vn 0.6284 0.1888 0.7546
vn 0.8652 0.2631 0.4268
vn 0.9392 0.2860 0.1903
vn 0.9529 0.2883 -0.0944
vn 0.9535 0.2898 -0.0827
vn 0.9371 0.2850 -0.2014
vn 0.8344 0.2539 -0.4892
vn 0.6532 -0.0625 0.7546
vn 0.8999 -0.0892 0.4268
vn 0.9769 -0.0972 0.1903
vn 0.9908 -0.0969 -0.0944
vn 0.9917 -0.0982 -0.0827
vn 0.9747 -0.0967 -0.2014
vn 0.8679 -0.0862 -0.4892
vn 0.5778 -0.3109 0.7546
vn 0.7978 -0.4258 0.4268
vn 0.8663 -0.4619 0.1903
vn 0.8776 -0.4699 -0.0944
vn 0.8791 -0.4693 -0.0827
vn 0.8642 -0.4611 -0.2014
vn 0.7695 -0.4105 -0.4892
vn 0.4176 -0.5061 0.7546
vn 0.5733 -0.6994 0.4268
vn 0.6220 -0.7595 0.1903
vn 0.6321 -0.7691 -0.0944
vn 0.6318 -0.7707 -0.0827
vn 0.6209 -0.7576 -0.2014
vn 0.5527 -0.6747 -0.4892
vn 0.1888 -0.6284 0.7546
vn 0.2630 -0.8652 0.4268
vn 0.2860 -0.9392 0.1903
vn 0.2883 -0.9529 -0.0944
vn 0.2898 -0.9535 -0.0827
vn 0.2850 -0.9371 -0.2014
vn 0.2539 -0.8344 -0.4892
vn -0.0625 -0.6532 0.7546
vn -0.0892 -0.8999 0.4268
vn -0.0972 -0.9769 0.1903
vn -0.0969 -0.9908 -0.0944
vn -0.0982 -0.9917 -0.0827
vn -0.0967 -0.9747 -0.2014
vn -0.0862 -0.8679 -0.4892
vn -0.3109 -0.5778 0.7546
vn -0.4258 -0.7978 0.4268
vn -0.4619 -0.8663 0.1903
vn -0.4699 -0.8776 -0.0944
vn -0.4693 -0.8791 -0.0827
vn -0.4611 -0.8642 -0.2014
vn -0.4105 -0.7695 -0.4892
vn -0.0000 -0.0000 -1.0000
vn -0.5061 -0.4176 0.7546
vn -0.6994 -0.5733 0.4268
vn -0.7595 -0.6220 0.1903
vn -0.7691 -0.6321 -0.0944
vn -0.7707 -0.6318 -0.0827
vn -0.7576 -0.6209 -0.2014
vn -0.6747 -0.5527 -0.4892
vn -0.6284 -0.1888 0.7546
vn -0.8652 -0.2630 0.4268
vn -0.9392 -0.2860 0.1903
vn -0.9529 -0.2883 -0.0944
vn -0.9535 -0.2898 -0.0827
vn -0.9371 -0.2850 -0.2014
vn -0.8344 -0.2539 -0.4892
vn -0.6532 0.0625 0.7546
vn -0.8999 0.0892 0.4268
vn -0.9769 0.0972 0.1903
vn -0.9908 0.0969 -0.0944
vn -0.9917 0.0982 -0.0827
vn -0.9747 0.0967 -0.2014
vn -0.8679 0.0862 -0.4892
vn -0.5778 0.3109 0.7546
vn -0.7978 0.4258 0.4268
vn -0.8663 0.4619 0.1903
vn -0.8776 0.4699 -0.0944
vn -0.8791 0.4693 -0.0827
vn -0.8642 0.4611 -0.2014
vn -0.7695 0.4105 -0.4892
vn -0.4176 0.5061 0.7546
vn -0.5733 0.6994 0.4268
vn -0.6220 0.7595 0.1903
vn -0.6321 0.7691 -0.0944
vn -0.6318 0.7707 -0.0827
vn -0.6209 0.7576 -0.2014
vn -0.5527 0.6747 -0.4892
vn -0.1888 0.6284 0.7546
vn -0.2630 0.8652 0.4268
vn -0.2860 0.9392 0.1903
vn -0.2883 0.9529 -0.0944
vn -0.2898 0.9535 -0.0827
vn -0.2850 0.9371 -0.2014
vn -0.2539 0.8344 -0.4892
vn 0.0994 0.9946 -0.0289
vn 0.4699 0.8822 -0.0289
vn 0.7736 0.6330 -0.0289
vn 0.9561 0.2915 -0.0289
vn 0.9946 -0.0994 -0.0289
vn 0.8822 -0.4699 -0.0289
vn 0.6330 -0.7736 -0.0289
vn 0.2915 -0.9561 -0.0289
vn -0.0994 -0.9946 -0.0289
vn -0.4699 -0.8822 -0.0289
vn -0.7736 -0.6330 -0.0289
vn -0.9561 -0.2915 -0.0289
vn -0.9946 0.0994 -0.0289
vn -0.8822 0.4699 -0.0289
vn -0.6330 0.7736 -0.0289
vn -0.2915 0.9561 -0.0289
vn -0.0615 -0.6432 -0.7632
vn -0.0887 -0.8977 -0.4317
vn -0.0971 -0.9768 -0.1910
vn -0.0969 -0.9909 0.0939
vn -0.0982 -0.9917 0.0829
vn -0.0965 -0.9738 0.2059
vn -0.0817 -0.8349 0.5443
vn -0.3062 -0.5690 -0.7632
vn -0.4250 -0.7957 -0.4317
vn -0.4619 -0.8661 -0.1910
vn -0.4699 -0.8777 0.0939
vn -0.4693 -0.8791 0.0829
vn -0.4608 -0.8633 0.2059
vn -0.3959 -0.7396 0.5443
vn -0.4983 -0.4114 -0.7632
vn -0.6975 -0.5720 -0.4317
vn -0.7594 -0.6220 -0.1910
vn -0.7691 -0.6321 0.0939
vn -0.7707 -0.6318 0.0829
vn -0.7568 -0.6204 0.2059
vn -0.6482 -0.5326 0.5443
vn -0.6189 -0.1858 -0.7632
vn -0.8631 -0.2621 -0.4317
vn -0.9391 -0.2858 -0.1910
vn -0.9529 -0.2883 0.0939
vn -0.9535 -0.2897 0.0829
vn -0.9363 -0.2846 0.2059
vn -0.8029 -0.2430 0.5443
vn -0.6432 0.0615 -0.7632
vn -0.8977 0.0887 -0.4317
vn -0.9768 0.0971 -0.1910
vn -0.9909 0.0969 0.0939
vn -0.9917 0.0982 0.0829
vn -0.9738 0.0965 0.2059
vn -0.8349 0.0817 0.5443
vn -0.5690 0.3062 -0.7632
vn -0.7957 0.4250 -0.4317
vn -0.8661 0.4619 -0.1910
vn -0.8777 0.4699 0.0939
vn -0.8791 0.4693 0.0829
vn -0.8633 0.4608 0.2059
vn -0.7396 0.3959 0.5443
vn -0.4114 0.4983 -0.7632
vn -0.5720 0.6975 -0.4317
vn -0.6220 0.7594 -0.1910
vn -0.6321 0.7691 0.0939
vn -0.6318 0.7707 0.0829
vn -0.6204 0.7568 0.2059
vn -0.5326 0.6482 0.5443
vn -0.1858 0.6189 -0.7632
vn -0.2621 0.8631 -0.4317
vn -0.2858 0.9391 -0.1910
vn -0.2883 0.9529 0.0939
vn -0.2897 0.9535 0.0829
vn -0.2846 0.9363 0.2059
vn -0.2430 0.8029 0.5443
vn 0.0615 0.6432 -0.7632
vn 0.0887 0.8977 -0.4317
vn 0.0971 0.9768 -0.1910
vn 0.0969 0.9909 0.0939
vn 0.0982 0.9917 0.0829
vn 0.0965 0.9738 0.2059
vn 0.0817 0.8349 0.5443
vn 0.3062 0.5690 -0.7632
vn 0.4250 0.7957 -0.4317
vn 0.4619 0.8661 -0.1910
vn 0.4699 0.8777 0.0939
vn 0.4693 0.8791 0.0829
vn 0.4608 0.8633 0.2059
vn 0.3959 0.7396 0.5443
vn 0.4983 0.4114 -0.7632
vn 0.6975 0.5720 -0.4317
vn 0.7594 0.6220 -0.1910
vn 0.7691 0.6321 0.0939
vn 0.7707 0.6318 0.0829
vn 0.7568 0.6204 0.2059
vn 0.6482 0.5326 0.5443
vn 0.6189 0.1858 -0.7632
vn 0.8631 0.2621 -0.4317
vn 0.9391 0.2858 -0.1910
vn 0.9529 0.2883 0.0939
vn 0.9535 0.2897 0.0829
vn 0.9363 0.2846 0.2059
vn 0.8029 0.2430 0.5443
vn 0.6432 -0.0615 -0.7632
vn 0.8977 -0.0887 -0.4317
vn 0.9768 -0.0971 -0.1910
vn 0.9909 -0.0969 0.0939
vn 0.9917 -0.0982 0.0829
vn 0.9738 -0.0965 0.2059
vn 0.8349 -0.0817 0.5443
vn 0.5690 -0.3062 -0.7632
vn 0.7957 -0.4250 -0.4317
vn 0.8661 -0.4619 -0.1910
vn 0.8777 -0.4699 0.0939
vn 0.8791 -0.4693 0.0829
vn 0.8633 -0.4608 0.2059
vn 0.7396 -0.3959 0.5443
vn 0.4114 -0.4983 -0.7632
vn 0.5720 -0.6975 -0.4317
vn 0.6220 -0.7594 -0.1910
vn 0.6321 -0.7691 0.0939
vn 0.6318 -0.7707 0.0829
vn 0.6204 -0.7568 0.2059
vn 0.5326 -0.6482 0.5443
vn 0.1858 -0.6189 -0.7632
vn 0.2621 -0.8631 -0.4317
vn 0.2858 -0.9391 -0.1910
vn 0.2883 -0.9529 0.0939
vn 0.2897 -0.9535 0.0829
vn 0.2846 -0.9363 0.2059
vn 0.2430 -0.8029 0.5443
vn -0.0994 -0.9946 0.0289
vn -0.4700 -0.8822 0.0289
vn -0.7736 -0.6331 0.0289
vn -0.9561 -0.2915 0.0289
vn -0.9946 0.0994 0.0289
vn -0.8822 0.4700 0.0289
vn -0.6331 0.7736 0.0289
vn -0.2915 0.9561 0.0289
vn 0.0994 0.9946 0.0289
vn 0.4700 0.8822 0.0289
vn 0.7736 0.6331 0.0289
vn 0.9561 0.2915 0.0289
vn 0.9946 -0.0994 0.0289
vn 0.8822 -0.4700 0.0289
vn 0.6331 -0.7736 0.0289
vn 0.2915 -0.9561 0.0289
vt 0.401905 0.604826
vt 0.424161 0.497674
vt 0.452311 0.503171
vt 0.434153 0.610396
vt 0.396475 0.902730
vt 0.362613 0.898574
vt 0.364862 0.837310
vt 0.409105 0.842739
vt 0.352228 0.904546
vt 0.339531 0.902537
vt 0.348272 0.834685
vt 0.415304 0.495499
vt 0.436610 0.413245
vt 0.443389 0.414910
vt 0.455814 0.357616
vt 0.452146 0.356714
vt 0.373331 0.772408
vt 0.360108 0.770289
vt 0.390230 0.602372
vt 0.460551 0.330416
vt 0.341037 0.956404
vt 0.331583 0.993894
vt 0.334166 0.955316
vt 0.313664 0.939202
vt 0.297806 0.970487
vt 0.295343 0.935499
vt 0.296982 0.887403
vt 0.330833 0.894245
vt 0.446014 0.345177
vt 0.434448 0.342142
vt 0.447566 0.315711
vt 0.387383 0.488171
vt 0.413694 0.401259
vt 0.435063 0.406867
vt 0.304043 0.825745
vt 0.317595 0.760786
vt 0.357904 0.595067
vt 0.429553 0.350057
vt 0.412828 0.406595
vt 0.406153 0.404420
vt 0.425941 0.348880
vt 0.286271 0.892344
vt 0.273665 0.889366
vt 0.287574 0.821854
vt 0.346276 0.591761
vt 0.378662 0.485330
vt 0.304418 0.757756
vt 0.436328 0.323130
vt 0.271110 0.943600
vt 0.258779 0.980553
vt 0.264288 0.941988
vt 0.246438 0.924081
vt 0.228371 0.919232
vt 0.233029 0.871292
vt 0.266413 0.880253
vt 0.228633 0.954335
vt 0.243956 0.810147
vt 0.350976 0.475989
vt 0.383586 0.390051
vt 0.404776 0.397200
vt 0.408654 0.331795
vt 0.420122 0.335664
vt 0.261980 0.745953
vt 0.314235 0.582238
vt 0.383299 0.395464
vt 0.376717 0.392725
vt 0.401218 0.338099
vt 0.404780 0.339581
vt 0.423738 0.306016
vt 0.228145 0.805556
vt 0.248497 0.742224
vt 0.302807 0.578188
vt 0.342377 0.472411
vt 0.413805 0.312870
vt 0.206155 0.923032
vt 0.192355 0.958328
vt 0.199606 0.921130
vt 0.223409 0.873979
vt 0.211309 0.870465
vt 0.181352 0.905572
vt 0.163542 0.899724
vt 0.170845 0.852014
vt 0.203754 0.862820
vt 0.161870 0.934861
vt 0.185148 0.791437
vt 0.375076 0.385046
vt 0.354131 0.376303
vt 0.383649 0.319106
vt 0.394984 0.323838
vt 0.206224 0.727752
vt 0.271304 0.565855
vt 0.315011 0.460988
vt 0.400750 0.294080
vt 0.169327 0.785818
vt 0.193123 0.722645
vt 0.260019 0.561159
vt 0.301310 0.454673
vt 0.139913 0.904104
vt 0.123752 0.939213
vt 0.133359 0.901776
vt 0.483219 0.113024
vt 0.470103 0.106447
vt 0.531976 0.000073
vt 0.160412 0.855195
vt 0.148303 0.850894
vt 0.400288 0.288600
vt 0.382773 0.280117
vt 0.116425 0.884754
vt 0.098673 0.877854
vt 0.108671 0.829844
vt 0.141473 0.842593
vt 0.095069 0.913412
vt 0.126469 0.769160
vt 0.151430 0.704305
vt 0.229005 0.547939
vt 0.273433 0.443516
vt 0.311776 0.357191
vt 0.333112 0.365730
vt 0.352355 0.303461
vt 0.340807 0.298840
vt 0.357749 0.273246
vt 0.048409 0.929071
vt 0.007209 0.999927
vt 0.036566 0.923466
vt 0.218454 0.542680
vt 0.264496 0.439697
vt 0.307960 0.359813
vt 0.301120 0.356890
vt 0.088847 0.851495
vt 0.071578 0.843418
vt 0.108826 0.761241
vt 0.330930 0.301715
vt 0.327228 0.300133
vt 0.137743 0.698162
vt 0.049040 0.856200
vt 0.031817 0.848059
vt 0.045192 0.800869
vt 0.077015 0.815912
vt 0.340613 0.273932
vt 0.025704 0.883279
vt 0.323454 0.291774
vt 0.312197 0.286551
vt 0.330447 0.261959
vt 0.189087 0.527418
vt 0.237318 0.427088
vt 0.280146 0.343133
vt 0.300947 0.352784
vt 0.067247 0.741587
vt 0.095900 0.676887
vt 0.277550 0.341561
vt 0.228193 0.422654
vt 0.270566 0.338167
vt 0.039886 0.798798
vt 0.017487 0.842577
vt 0.011592 0.839963
vt 0.028992 0.793968
vt 0.053014 0.735277
vt 0.304437 0.282146
vt 0.300657 0.280310
vt 0.081527 0.669379
vt 0.179462 0.521995
vt 0.315937 0.253669
vt 0.000073 0.873902
vt 0.509636 0.952101
vt 0.499296 0.983549
vt 0.492016 0.951255
vt 0.486695 0.906146
vt 0.519254 0.907709
vt 0.527233 0.511900
vt 0.498850 0.509539
vt 0.509600 0.420591
vt 0.531323 0.422397
vt 0.519710 0.616517
vt 0.488720 0.615561
vt 0.531446 0.360578
vt 0.519690 0.359601
vt 0.527931 0.331679
vt 0.484503 0.847612
vt 0.527044 0.849654
vt 0.487368 0.782933
vt 0.531976 0.783518
vt 0.475189 0.959490
vt 0.468764 0.959216
vt 0.468123 0.910183
vt 0.479995 0.910688
vt 0.489637 0.508494
vt 0.500453 0.422800
vt 0.507504 0.423600
vt 0.468992 0.846951
vt 0.512601 0.364222
vt 0.508786 0.363789
vt 0.473309 0.782255
vt 0.477599 0.614946
vt 0.513850 0.336184
vt 0.470463 0.994915
vt 0.449363 0.951819
vt 0.438208 0.983923
vt 0.431289 0.950647
vt 0.426602 0.904250
vt 0.459998 0.906413
vt 0.461379 0.504760
vt 0.476432 0.416366
vt 0.498060 0.419224
vt 0.369765 0.980340
vt 0.364669 0.946069
vt 0.382996 0.948318
vt 0.501177 0.357435
vt 0.489472 0.355888
vt 0.499062 0.328376
vt 0.425358 0.844124
vt 0.429903 0.779381
vt 0.445637 0.611952
vt 0.483747 0.361547
vt 0.475124 0.420096
vt 0.468184 0.418880
vt 0.479991 0.360888
vt 0.417812 0.910133
vt 0.405373 0.909073
vt 0.416397 0.778012
vt 0.486670 0.333830
vt 0.410590 0.961145
vt 0.404049 0.998119
vt 0.403858 0.960571
vt 0.473236 0.352166
vt 0.461576 0.349889
vt 0.472908 0.322850
vt 0.466288 0.414032
vt 0.444742 0.409825
s 1
usemtl Material
f 4/1/4 5/2/5 112/3/112 111/4/111
f 109/5/109 2/6/2 3/7/3 110/8/110
f 3/7/3 2/9/2 9/10/9 10/11/10
f 5/2/5 12/12/12 13/13/13 6/14/6
f 7/15/7 6/14/6 13/13/13 14/16/14
f 115/17/115 3/7/3 10/11/10 116/18/116
f 5/2/5 4/1/4 11/19/11 12/12/12
f 72/20/72 7/15/7 14/16/14
f 1/21/1 22/22/22 8/23/8
f 2/9/2 1/21/1 8/23/8 9/10/9
f 8/24/8 22/25/22 15/26/15
f 8/24/8 15/26/15 16/27/16 9/28/9
f 14/29/14 21/30/21 72/31/72
f 12/12/12 19/32/19 20/33/20 13/34/13
f 13/34/13 20/33/20 21/30/21 14/29/14
f 9/28/9 16/27/16 17/35/17 10/11/10
f 10/11/10 17/35/17 117/36/117 116/18/116
f 11/19/11 18/37/18 19/32/19 12/12/12
f 21/38/21 20/39/20 28/40/28 29/41/29
f 16/42/16 24/43/24 25/44/25 17/35/17
f 19/32/19 18/37/18 26/45/26 27/46/27
f 117/36/117 17/35/17 25/44/25 118/47/118
f 72/48/72 21/38/21 29/41/29
f 15/49/15 22/50/22 23/51/23
f 16/42/16 15/49/15 23/51/23 24/43/24
f 20/39/20 19/32/19 27/46/27 28/40/28
f 23/52/23 30/53/30 31/54/31 24/55/24
f 23/52/23 22/56/22 30/53/30
f 24/55/24 31/54/31 32/57/32 25/44/25
f 27/46/27 34/58/34 35/59/35 28/60/28
f 28/60/28 35/59/35 36/61/36 29/62/29
f 25/44/25 32/57/32 119/63/119 118/47/118
f 26/45/26 33/64/33 34/58/34 27/46/27
f 35/65/35 42/66/42 43/67/43 36/68/36
f 29/62/29 36/61/36 72/69/72
f 119/63/119 32/57/32 39/70/39 120/71/120
f 34/58/34 33/64/33 40/72/40 41/73/41
f 72/74/72 36/68/36 43/67/43
f 30/75/30 22/76/22 37/77/37
f 31/78/31 30/75/30 37/77/37 38/79/38
f 35/65/35 34/58/34 41/73/41 42/66/42
f 32/57/32 31/78/31 38/79/38 39/70/39
f 37/80/37 44/81/44 45/82/45 38/83/38
f 37/80/37 22/84/22 44/81/44
f 38/83/38 45/82/45 46/85/46 39/70/39
f 42/86/42 49/87/49 50/88/50 43/89/43
f 39/70/39 46/85/46 121/90/121 120/71/120
f 40/72/40 47/91/47 48/92/48 41/73/41
f 41/73/41 48/92/48 49/87/49 42/86/42
f 43/89/43 50/88/50 72/93/72
f 46/85/46 53/94/53 122/95/122 121/90/121
f 48/92/48 47/91/47 54/96/54 55/97/55
f 44/98/44 22/99/22 51/100/51
f 50/101/50 57/102/57 72/103/72
f 45/104/45 44/98/44 51/100/51 52/105/52
f 49/106/49 48/92/48 55/97/55 56/107/56
f 46/85/46 45/104/45 52/105/52 53/94/53
f 50/101/50 49/106/49 56/107/56 57/102/57
f 51/108/51 58/109/58 59/110/59 52/111/52
f 51/108/51 22/112/22 58/109/58
f 53/94/53 60/113/60 123/114/123 122/95/122
f 61/115/61 62/116/62 55/97/55 54/96/54
f 55/97/55 62/116/62 63/117/63 56/118/56
f 57/119/57 64/120/64 72/121/72
f 52/111/52 59/110/59 60/113/60 53/94/53
f 56/118/56 63/117/63 64/120/64 57/119/57
f 58/122/58 22/123/22 65/124/65
f 62/116/62 61/115/61 68/125/68 69/126/69
f 63/127/63 62/116/62 69/126/69 70/128/70
f 59/129/59 58/122/58 65/124/65 66/130/66
f 60/113/60 59/129/59 66/130/66 67/131/67
f 64/132/64 63/127/63 70/128/70 71/133/71
f 123/114/123 60/113/60 67/131/67 124/134/124
f 65/135/65 73/136/73 74/137/74 66/138/66
f 72/139/72 64/132/64 71/133/71
f 65/135/65 22/140/22 73/136/73
f 71/141/71 79/142/79 72/143/72
f 68/125/68 76/144/76 77/145/77 69/126/69
f 69/126/69 77/145/77 78/146/78 70/147/70
f 66/138/66 74/137/74 75/148/75 67/131/67
f 70/147/70 78/146/78 79/142/79 71/141/71
f 67/131/67 75/148/75 125/149/125 124/134/124
f 78/150/78 77/145/77 84/151/84 85/152/85
f 74/153/74 73/154/73 80/155/80 81/156/81
f 75/148/75 74/153/74 81/156/81 82/157/82
f 79/158/79 78/150/78 85/152/85 86/159/86
f 125/149/125 75/148/75 82/157/82 126/160/126
f 77/145/77 76/144/76 83/161/83 84/151/84
f 72/162/72 79/158/79 86/159/86
f 73/154/73 22/163/22 80/155/80
f 80/164/80 22/165/22 87/166/87
f 80/164/80 87/166/87 88/167/88 81/168/81
f 84/169/84 91/170/91 92/171/92 85/172/85
f 83/173/83 90/174/90 91/170/91 84/169/84
f 86/175/86 93/176/93 72/177/72
f 81/168/81 88/167/88 89/178/89 82/179/82
f 85/172/85 92/171/92 93/176/93 86/175/86
f 82/179/82 89/178/89 127/180/127 126/181/126
f 87/182/87 94/183/94 95/184/95 88/185/88
f 91/170/91 98/186/98 99/187/99 92/188/92
f 89/178/89 88/185/88 95/184/95 96/189/96
f 93/190/93 92/188/92 99/187/99 100/191/100
f 127/180/127 89/178/89 96/189/96 128/192/128
f 91/170/91 90/174/90 97/193/97 98/186/98
f 72/194/72 93/190/93 100/191/100
f 87/182/87 22/195/22 94/183/94
f 94/196/94 22/197/22 101/198/101
f 94/196/94 101/198/101 102/199/102 95/200/95
f 98/186/98 105/201/105 106/202/106 99/203/99
f 22/204/22 1/205/1 108/206/108
f 100/207/100 107/208/107 72/209/72
f 99/203/99 106/202/106 107/208/107 100/207/100
f 95/200/95 102/199/102 103/210/103 96/189/96
f 96/189/96 103/210/103 129/211/129 128/192/128
f 97/193/97 104/212/104 105/201/105 98/186/98
f 107/213/107 106/214/106 113/215/113 114/216/114
f 102/217/102 109/218/109 110/8/110 103/210/103
f 105/201/105 104/212/104 111/4/111 112/3/112
f 129/211/129 103/210/103 110/8/110 130/219/130
f 72/220/72 107/213/107 114/216/114
f 101/221/101 22/222/22 108/223/108
f 102/217/102 101/221/101 108/223/108 109/218/109
f 106/214/106 105/201/105 112/3/112 113/215/113
f 114/224/114 7/225/7 72/226/72
f 113/227/113 6/228/6 7/225/7 114/224/114
f 108/206/108 1/205/1 2/6/2 109/5/109
f 110/8/110 3/7/3 115/17/115 130/219/130
f 128/192/128 97/193/97 90/174/90 127/180/127
f 104/212/104 97/193/97 128/192/128 129/211/129
f 130/219/130 111/4/111 104/212/104 129/211/129
f 4/1/4 111/4/111 130/219/130 115/17/115
f 116/18/116 11/19/11 4/1/4 115/17/115
f 18/37/18 11/19/11 116/18/116 117/36/117
f 118/47/118 26/45/26 18/37/18 117/36/117
f 26/45/26 118/47/118 119/63/119 33/64/33
f 120/71/120 40/72/40 33/64/33 119/63/119
f 40/72/40 120/71/120 121/90/121 47/91/47
f 122/95/122 54/96/54 47/91/47 121/90/121
f 61/115/61 54/96/54 122/95/122 123/114/123
f 124/134/124 68/125/68 61/115/61 123/114/123
f 68/125/68 124/134/124 125/149/125 76/144/76
f 83/173/83 126/181/126 127/180/127 90/174/90
f 126/160/126 83/161/83 76/144/76 125/149/125
f 112/3/112 5/2/5 6/228/6 113/227/113
usemtl Material.001
f 134/1/134 241/4/239 242/3/240 135/2/135
f 239/5/237 240/8/238 133/7/133 132/6/132
f 133/7/133 140/11/140 139/10/139 132/9/132
f 135/2/135 136/14/136 143/13/143 142/12/142
f 137/15/137 144/16/144 143/13/143 136/14/136
f 245/17/243 246/18/244 140/11/140 133/7/133
f 135/2/135 142/12/142 141/19/141 134/1/134
f 202/20/22 144/16/144 137/15/137
f 131/21/131 138/23/138 152/22/72
f 132/9/132 139/10/139 138/23/138 131/21/131
f 138/24/138 145/26/145 152/25/72
f 138/24/138 139/28/139 146/27/146 145/26/145
f 144/29/144 202/31/22 151/30/151
f 142/12/142 143/34/143 150/33/150 149/32/149
f 143/34/143 144/29/144 151/30/151 150/33/150
f 139/28/139 140/11/140 147/35/147 146/27/146
f 140/11/140 246/18/244 247/36/245 147/35/147
f 141/19/141 142/12/142 149/32/149 148/37/148
f 151/38/151 159/41/158 158/40/157 150/39/150
f 146/42/146 147/35/147 155/44/154 154/43/153
f 149/32/149 157/46/156 156/45/155 148/37/148
f 247/36/245 248/47/246 155/44/154 147/35/147
f 202/48/22 159/41/158 151/38/151
f 145/49/145 153/51/152 152/50/72
f 146/42/146 154/43/153 153/51/152 145/49/145
f 150/39/150 158/40/157 157/46/156 149/32/149
f 153/52/152 154/55/153 161/54/160 160/53/159
f 153/52/152 160/53/159 152/56/72
f 154/55/153 155/44/154 162/57/161 161/54/160
f 157/46/156 158/60/157 165/59/164 164/58/163
f 158/60/157 159/62/158 166/61/165 165/59/164
f 155/44/154 248/47/246 249/63/247 162/57/161
f 156/45/155 157/46/156 164/58/163 163/64/162
f 165/65/164 166/68/165 173/67/172 172/66/171
f 159/62/158 202/69/22 166/61/165
f 249/63/247 250/71/248 169/70/168 162/57/161
f 164/58/163 171/73/170 170/72/169 163/64/162
f 202/74/22 173/67/172 166/68/165
f 160/75/159 167/77/166 152/76/72
f 161/78/160 168/79/167 167/77/166 160/75/159
f 165/65/164 172/66/171 171/73/170 164/58/163
f 162/57/161 169/70/168 168/79/167 161/78/160
f 167/80/166 168/83/167 175/82/174 174/81/173
f 167/80/166 174/81/173 152/84/72
f 168/83/167 169/70/168 176/85/175 175/82/174
f 172/86/171 173/89/172 180/88/179 179/87/178
f 169/70/168 250/71/248 251/90/249 176/85/175
f 170/72/169 171/73/170 178/92/177 177/91/176
f 171/73/170 172/86/171 179/87/178 178/92/177
f 173/89/172 202/93/22 180/88/179
f 176/85/175 251/90/249 252/95/250 183/94/182
f 178/92/177 185/97/184 184/96/183 177/91/176
f 174/98/173 181/100/180 152/99/72
f 180/101/179 202/103/22 187/102/186
f 175/104/174 182/105/181 181/100/180 174/98/173
f 179/106/178 186/107/185 185/97/184 178/92/177
f 176/85/175 183/94/182 182/105/181 175/104/174
f 180/101/179 187/102/186 186/107/185 179/106/178
f 181/108/180 182/111/181 189/110/188 188/109/187
f 181/108/180 188/109/187 152/112/72
f 183/94/182 252/95/250 253/114/251 190/113/189
f 191/115/190 184/96/183 185/97/184 192/116/191
f 185/97/184 186/118/185 193/117/192 192/116/191
f 187/119/186 202/121/22 194/120/193
f 182/111/181 183/94/182 190/113/189 189/110/188
f 186/118/185 187/119/186 194/120/193 193/117/192
f 188/122/187 195/124/194 152/123/72
f 192/116/191 199/126/198 198/125/197 191/115/190
f 193/127/192 200/128/199 199/126/198 192/116/191
f 189/129/188 196/130/195 195/124/194 188/122/187
f 190/113/189 197/131/196 196/130/195 189/129/188
f 194/132/193 201/133/200 200/128/199 193/127/192
f 253/114/251 254/134/252 197/131/196 190/113/189
f 195/135/194 196/138/195 204/137/202 203/136/201
f 202/139/22 201/133/200 194/132/193
f 195/135/194 203/136/201 152/140/72
f 201/141/200 202/143/22 209/142/207
f 198/125/197 199/126/198 207/145/205 206/144/204
f 199/126/198 200/147/199 208/146/206 207/145/205
f 196/138/195 197/131/196 205/148/203 204/137/202
f 200/147/199 201/141/200 209/142/207 208/146/206
f 197/131/196 254/134/252 255/149/253 205/148/203
f 208/150/206 215/152/213 214/151/212 207/145/205
f 204/153/202 211/156/209 210/155/208 203/154/201
f 205/148/203 212/157/210 211/156/209 204/153/202
f 209/158/207 216/159/214 215/152/213 208/150/206
f 255/149/253 256/160/254 212/157/210 205/148/203
f 207/145/205 214/151/212 213/161/211 206/144/204
f 202/162/22 216/159/214 209/158/207
f 203/154/201 210/155/208 152/163/72
f 210/164/208 217/166/215 152/165/72
f 210/164/208 211/168/209 218/167/216 217/166/215
f 214/169/212 215/172/213 222/171/220 221/170/219
f 213/173/211 214/169/212 221/170/219 220/174/218
f 216/175/214 202/177/22 223/176/221
f 211/168/209 212/179/210 219/178/217 218/167/216
f 215/172/213 216/175/214 223/176/221 222/171/220
f 212/179/210 256/181/254 257/180/255 219/178/217
f 217/182/215 218/185/216 225/184/223 224/183/222
f 221/170/219 222/188/220 229/187/227 228/186/226
f 219/178/217 226/189/224 225/184/223 218/185/216
f 223/190/221 230/191/228 229/187/227 222/188/220
f 257/180/255 258/192/256 226/189/224 219/178/217
f 221/170/219 228/186/226 227/193/225 220/174/218
f 202/194/22 230/191/228 223/190/221
f 217/182/215 224/183/222 152/195/72
f 224/196/222 231/198/229 152/197/72
f 224/196/222 225/200/223 232/199/230 231/198/229
f 228/186/226 229/203/227 236/202/234 235/201/233
f 152/204/72 238/206/236 131/205/131
f 230/207/228 202/209/22 237/208/235
f 229/203/227 230/207/228 237/208/235 236/202/234
f 225/200/223 226/189/224 233/210/231 232/199/230
f 226/189/224 258/192/256 259/211/257 233/210/231
f 227/193/225 228/186/226 235/201/233 234/212/232
f 237/213/235 244/216/242 243/215/241 236/214/234
f 232/217/230 233/210/231 240/8/238 239/218/237
f 235/201/233 242/3/240 241/4/239 234/212/232
f 259/211/257 260/219/258 240/8/238 233/210/231
f 202/220/22 244/216/242 237/213/235
f 231/221/229 238/223/236 152/222/72
f 232/217/230 239/218/237 238/223/236 231/221/229
f 236/214/234 243/215/241 242/3/240 235/201/233
f 244/224/242 202/226/22 137/225/137
f 243/227/241 244/224/242 137/225/137 136/228/136
f 238/206/236 239/5/237 132/6/132 131/205/131
f 240/8/238 260/219/258 245/17/243 133/7/133
f 258/192/256 257/180/255 220/174/218 227/193/225
f 234/212/232 259/211/257 258/192/256 227/193/225
f 260/219/258 259/211/257 234/212/232 241/4/239
f 134/1/134 245/17/243 260/219/258 241/4/239
f 246/18/244 245/17/243 134/1/134 141/19/141
f 148/37/148 247/36/245 246/18/244 141/19/141
f 248/47/246 247/36/245 148/37/148 156/45/155
f 156/45/155 163/64/162 249/63/247 248/47/246
f 250/71/248 249/63/247 163/64/162 170/72/169
f 170/72/169 177/91/176 251/90/249 250/71/248
f 252/95/250 251/90/249 177/91/176 184/96/183
f 191/115/190 253/114/251 252/95/250 184/96/183
f 254/134/252 253/114/251 191/115/190 198/125/197
f 198/125/197 206/144/204 255/149/253 254/134/252
f 213/173/211 220/174/218 257/180/255 256/181/254
f 256/160/254 255/149/253 206/144/204 213/161/211
f 242/3/240 243/227/241 136/228/136 135/2/135
