# Blender 4.2.2 LTS
# www.blender.org
mtllib Camp.mtl
o Cylinder
v -43.445656 -0.022168 -8.339558
v -43.385254 2.947524 -8.561800
v -43.205875 5.819840 -9.222087
v -42.914333 8.469554 -10.295401
v -42.521423 10.795507 -11.742027
v -42.041737 12.708125 -13.508280
v -41.493286 14.132529 -15.528017
v -40.897034 15.011504 -17.724253
v -40.276302 15.308681 -20.011318
v -39.655754 15.011504 -22.298433
v -39.059998 14.132529 -24.494804
v -38.512222 12.708125 -26.514725
v -38.033249 10.795507 -28.281170
v -37.640984 8.469556 -29.727974
v -37.349964 5.819841 -30.801430
v -37.110725 -0.022166 -31.684105
v -37.170956 2.947526 -31.461815
v -33.987679 -0.022166 -5.772980
v -33.927452 2.947526 -5.995270
v -33.748440 5.819842 -6.655656
v -33.457424 8.469556 -7.729112
v -33.065159 10.795509 -9.175914
v -32.586185 12.708127 -10.942361
v -32.038410 14.132531 -12.962280
v -31.442657 15.011506 -15.158652
v -30.822109 15.308683 -17.445766
v -30.201378 15.011506 -19.732832
v -29.605125 14.132531 -21.929068
v -29.056673 12.708127 -23.948805
v -28.576988 10.795509 -25.715057
v -28.184072 8.469558 -27.161684
v -27.892530 5.819843 -28.234997
v -27.652750 -0.022165 -29.117527
v -27.713154 2.947528 -28.895285
v -47.312096 -0.000002 -34.193695
v -46.479805 -0.002671 -34.530724
v -18.129913 -0.002665 -26.837513
v -17.582165 0.000003 -26.125986
v -52.968491 -0.002672 -10.619572
v -53.516239 -0.000003 -11.331099
v -23.786306 0.000002 -3.263390
v -24.618599 -0.002667 -2.926361
v -53.456635 2.942911 -11.550747
v -52.906155 3.075216 -10.849296
v -23.726702 2.942917 -3.483040
v -24.556257 3.075222 -3.156083
v -53.280109 5.772736 -12.201254
v -52.721539 6.034823 -11.529638
v -23.550177 5.772742 -4.133547
v -24.371632 6.034829 -3.836424
v -52.993446 8.380709 -13.257618
v -52.421738 8.762412 -12.634454
v -23.263515 8.380714 -5.189911
v -24.071812 8.762418 -4.941234
v -52.607666 10.666624 -14.679249
v -52.018272 11.153165 -14.121285
v -22.877733 10.666630 -6.611542
v -23.668327 11.153171 -6.428060
v -52.137589 12.542626 -16.411510
v -51.526646 13.115205 -15.932994
v -22.407656 12.542632 -8.343801
v -23.176683 13.115211 -8.239764
v -51.601280 13.936617 -18.387827
v -50.965752 14.573132 -17.999958
v -21.871349 13.936623 -10.320118
v -22.615772 14.573137 -10.306724
v -51.019356 14.795034 -20.532261
v -50.357140 15.470920 -20.242743
v -21.289421 14.795040 -12.464554
v -22.007153 15.470925 -12.549506
v -50.414169 15.084887 -22.762396
v -49.724197 15.774066 -22.575161
v -20.684238 15.084892 -14.694689
v -21.374210 15.774072 -14.881924
v -49.808987 14.795034 -24.992531
v -49.091255 15.470920 -24.907578
v -20.079056 14.795040 -16.924824
v -20.741272 15.470925 -17.214342
v -49.227058 13.936617 -27.136967
v -48.482635 14.573132 -27.150360
v -19.497128 13.936623 -19.069258
v -20.132660 14.573137 -19.457127
v -48.690754 12.542626 -29.113283
v -47.921726 13.115205 -29.217319
v -18.960819 12.542632 -21.045574
v -19.571762 13.115211 -21.524090
v -48.220676 10.666624 -30.845543
v -47.430080 11.153165 -31.029026
v -18.490742 10.666630 -22.777836
v -19.080133 11.153171 -23.335800
v -47.834892 8.380711 -32.267174
v -47.026596 8.762414 -32.515850
v -18.104959 8.380716 -24.199467
v -18.676666 8.762420 -24.822632
v -47.548229 5.772737 -33.323540
v -46.726776 6.034824 -33.620659
v -17.818296 5.772743 -25.255831
v -18.376867 6.034830 -25.927446
v -47.371704 2.942912 -33.974045
v -46.542149 3.075217 -34.301003
v -17.641769 2.942918 -25.906338
v -18.192251 3.075223 -26.607788
v -23.720621 0.014973 -4.472877
v -23.666977 2.929414 -4.670561
v -23.508104 5.476254 -5.256017
v -23.250109 7.823431 -6.206744
v -22.902905 9.880754 -7.486212
v -22.479836 11.569155 -9.045247
v -21.997160 12.823746 -10.823932
v -21.473425 13.596323 -12.753923
v -20.928761 13.857190 -14.761044
v -20.384094 13.596323 -16.768166
v -19.860359 12.823746 -18.698156
v -19.377684 11.569155 -20.476841
v -18.954613 9.880754 -22.035877
v -18.607407 7.823431 -23.315344
v -18.349411 5.476255 -24.266071
v -18.190536 2.929415 -24.851528
v -18.136892 0.014974 -25.049212
v -52.907871 2.929408 -12.605557
v -52.961517 0.014966 -12.407873
v -52.749001 5.476249 -13.191014
v -52.491005 7.823425 -14.141741
v -52.143799 9.880748 -15.421208
v -51.720726 11.569149 -16.980244
v -51.238052 12.823740 -18.758928
v -50.714317 13.596317 -20.688921
v -50.169655 13.857184 -22.696041
v -49.624989 13.596317 -24.703163
v -49.101254 12.823740 -26.633154
v -48.618576 11.569149 -28.411839
v -48.195503 9.880748 -29.970873
v -47.848297 7.823426 -31.250340
v -47.590302 5.476250 -32.201069
v -47.431427 2.929409 -32.786522
v -47.377785 0.014968 -32.984207
v -37.692726 -0.037148 -31.642542
v -36.647636 -0.039182 -31.329229
v -28.231707 -0.039180 -29.045427
v -27.171597 -0.037146 -28.787460
v -33.405678 -0.037147 -5.814543
v -34.450768 -0.039181 -6.127855
v -42.866699 -0.039183 -8.411656
v -43.926811 -0.037149 -8.669624
v -34.391022 2.910812 -6.348032
v -33.345791 2.919970 -6.035254
v -43.866909 2.919968 -8.890333
v -42.806950 2.910810 -8.631834
v -34.214069 5.747438 -7.000103
v -33.168434 5.763446 -6.688906
v -43.689514 5.763444 -9.543974
v -42.630001 5.747437 -9.283905
v -33.926720 8.361689 -8.059010
v -32.880417 8.384008 -7.750376
v -43.401440 8.384007 -10.605429
v -42.342651 8.361687 -10.342811
v -33.540009 10.653098 -9.484056
v -32.492809 10.680949 -9.178875
v -43.013760 10.680947 -12.033909
v -41.955940 10.653096 -11.767858
v -33.068802 12.533609 -11.220480
v -32.020500 12.565998 -10.919504
v -42.541378 12.565996 -13.774518
v -41.484734 12.533607 -13.504282
v -32.531204 13.930955 -13.201553
v -31.481636 13.966716 -12.905370
v -42.002449 13.966714 -15.760366
v -40.947136 13.930953 -15.485355
v -31.947880 14.791435 -15.351143
v -30.896925 14.829271 -15.060155
v -41.417694 14.829269 -17.915138
v -40.363808 14.791433 -17.634945
v -31.341240 15.081985 -17.586641
v -30.288830 15.120522 -17.301052
v -40.809582 15.120520 -20.156033
v -39.757172 15.081983 -19.870443
v -30.734600 14.791435 -19.822140
v -29.680717 14.829271 -19.541946
v -40.201485 14.829269 -22.396931
v -39.150532 14.791433 -22.105942
v -30.151274 13.930955 -21.971729
v -29.095959 13.966716 -21.696718
v -39.616772 13.966714 -24.551716
v -38.567204 13.930953 -24.255531
v -29.613676 12.533609 -23.952803
v -28.557030 12.565998 -23.682568
v -39.077911 12.565996 -26.537580
v -38.029606 12.533607 -26.236605
v -29.142467 10.653098 -25.689228
v -28.084648 10.680949 -25.423176
v -38.605602 10.680947 -28.278210
v -37.558399 10.653096 -27.973028
v -28.755758 8.361691 -27.114273
v -27.696968 8.384010 -26.851656
v -38.217991 8.384008 -29.706709
v -37.171688 8.361689 -29.398075
v -28.468407 5.747439 -28.173180
v -27.408894 5.763447 -27.913111
v -37.929974 5.763445 -30.768179
v -36.884335 5.747437 -30.456982
v -28.291454 2.910813 -28.825251
v -27.231495 2.919971 -28.566751
v -37.752613 2.919969 -31.421831
v -36.707386 2.910811 -31.109053
vn -0.0547 0.3042 0.9510
vn -0.4336 0.3042 0.8482
vn -0.4174 0.4568 0.7856
vn -0.0370 0.4568 0.8888
vn -0.3927 0.6069 0.6910
vn -0.0105 0.6069 0.7947
vn -0.3580 0.7477 0.5592
vn 0.0263 0.7477 0.6635
vn -0.3124 0.8675 0.3871
vn 0.0739 0.8675 0.4919
vn -0.2566 0.9499 0.1784
vn 0.1312 0.9499 0.2836
vn -0.1942 0.9795 -0.0527
vn 0.1942 0.9795 0.0527
vn -0.1312 0.9499 -0.2836
vn 0.2566 0.9499 -0.1784
vn -0.0739 0.8675 -0.4919
vn 0.3124 0.8675 -0.3871
vn -0.0263 0.7477 -0.6635
vn 0.3580 0.7477 -0.5592
vn 0.0105 0.6069 -0.7947
vn 0.3927 0.6069 -0.6910
vn 0.0370 0.4568 -0.8888
vn 0.4174 0.4568 -0.7856
vn 0.0547 0.3042 -0.9510
vn 0.4336 0.3042 -0.8482
vn 0.0646 0.1518 -0.9863
vn 0.4428 0.1518 -0.8837
vn -0.1219 0.0764 0.9896
vn -0.1184 0.1532 0.9811
vn 0.0749 0.1461 0.9864
vn 0.0724 0.0729 0.9947
vn 0.9924 -0.1022 0.0691
vn 0.9962 -0.0673 0.0551
vn 0.9874 -0.0362 0.1543
vn 0.9855 -0.0539 0.1610
vn -0.0694 0.0757 0.9947
vn -0.4429 0.0757 0.8934
vn -0.4428 0.1518 0.8837
vn -0.0647 0.1518 0.9863
vn 0.3100 0.1551 -0.9380
vn 0.1184 0.1532 -0.9811
vn 0.1219 0.0764 -0.9896
vn 0.3116 0.0770 -0.9471
vn 0.3019 0.3105 -0.9014
vn 0.1101 0.3071 -0.9453
vn 0.3828 0.3071 -0.8713
vn 0.1952 0.3105 -0.9303
vn 0.2067 0.1551 -0.9660
vn 0.3937 0.1532 -0.9064
vn 0.2869 0.4661 -0.8369
vn 0.0948 0.4614 -0.8821
vn 0.3641 0.4614 -0.8090
vn 0.1755 0.4661 -0.8671
vn 0.2637 0.6190 -0.7398
vn 0.0711 0.6132 -0.7867
vn 0.3363 0.6132 -0.7147
vn 0.1464 0.6190 -0.7716
vn 0.2306 0.7623 -0.6048
vn 0.0374 0.7560 -0.6535
vn 0.2980 0.7560 -0.5828
vn 0.1068 0.7623 -0.6384
vn 0.1862 0.8839 -0.4289
vn -0.0075 0.8776 -0.4794
vn 0.2488 0.8776 -0.4098
vn 0.0562 0.8839 -0.4642
vn 0.1309 0.9675 -0.2164
vn -0.0631 0.9613 -0.2681
vn 0.1900 0.9613 -0.1994
vn -0.0036 0.9675 -0.2529
vn 0.0681 0.9975 0.0185
vn -0.1260 0.9914 -0.0342
vn 0.1260 0.9914 0.0342
vn -0.0681 0.9975 -0.0185
vn 0.0036 0.9675 0.2529
vn -0.1900 0.9613 0.1994
vn 0.0631 0.9613 0.2681
vn -0.1309 0.9675 0.2164
vn -0.0562 0.8839 0.4642
vn -0.2488 0.8776 0.4098
vn 0.0075 0.8776 0.4794
vn -0.1862 0.8839 0.4289
vn -0.1068 0.7623 0.6384
vn -0.2980 0.7560 0.5828
vn -0.0374 0.7560 0.6535
vn -0.2306 0.7623 0.6048
vn -0.1464 0.6190 0.7716
vn -0.3363 0.6132 0.7147
vn -0.0711 0.6132 0.7867
vn -0.2637 0.6190 0.7398
vn -0.1755 0.4661 0.8671
vn -0.3641 0.4614 0.8090
vn -0.0948 0.4614 0.8821
vn -0.2869 0.4661 0.8369
vn -0.1952 0.3105 0.9303
vn -0.3828 0.3071 0.8713
vn -0.1101 0.3071 0.9453
vn -0.3019 0.3105 0.9014
vn -0.2067 0.1551 0.9660
vn -0.3937 0.1532 0.9064
vn -0.3100 0.1551 0.9380
vn -0.2099 0.0770 0.9747
vn -0.3950 0.0764 0.9155
vn -0.3116 0.0770 0.9471
vn 0.2099 0.0770 -0.9747
vn 0.3950 0.0764 -0.9155
vn -0.7908 0.0615 0.6090
vn -0.7918 0.1250 0.5978
vn -0.7919 0.1208 0.5986
vn 0.3810 0.1250 0.9161
vn 0.3745 0.0615 0.9252
vn 0.3806 0.1208 0.9168
vn -0.7902 0.2483 0.5603
vn -0.7904 0.2405 0.5635
vn 0.3986 0.2483 0.8829
vn 0.3971 0.2405 0.8857
vn -0.7865 0.3674 0.4965
vn -0.7869 0.3573 0.5031
vn 0.4276 0.3674 0.8260
vn 0.4247 0.3573 0.8319
vn -0.7789 0.4783 0.4057
vn -0.7799 0.4680 0.4157
vn 0.4670 0.4783 0.7438
vn 0.4627 0.4680 0.7529
vn -0.7652 0.5757 0.2882
vn -0.7668 0.5673 0.3002
vn 0.5146 0.5757 0.6355
vn 0.5099 0.5673 0.6466
vn -0.7432 0.6528 0.1465
vn -0.7452 0.6479 0.1577
vn 0.5672 0.6528 0.5021
vn 0.5632 0.6479 0.5128
vn -0.7114 0.7027 -0.0132
vn -0.7129 0.7012 -0.0064
vn 0.6205 0.7027 0.3482
vn 0.6183 0.7012 0.3549
vn -0.6698 0.7200 -0.1818
vn 0.6698 0.7200 0.1818
vn -0.6205 0.7027 -0.3482
vn -0.6183 0.7012 -0.3549
vn 0.7114 0.7027 0.0132
vn 0.7129 0.7012 0.0064
vn -0.5672 0.6528 -0.5021
vn -0.5632 0.6479 -0.5128
vn 0.7432 0.6528 -0.1465
vn 0.7452 0.6479 -0.1577
vn -0.5146 0.5757 -0.6355
vn -0.5099 0.5673 -0.6466
vn 0.7652 0.5757 -0.2882
vn 0.7668 0.5673 -0.3002
vn -0.4670 0.4783 -0.7438
vn -0.4627 0.4680 -0.7529
vn 0.7789 0.4783 -0.4057
vn 0.7799 0.4680 -0.4157
vn -0.4276 0.3674 -0.8260
vn -0.4247 0.3573 -0.8319
vn 0.7865 0.3674 -0.4965
vn 0.7869 0.3573 -0.5031
vn -0.3986 0.2483 -0.8829
vn -0.3971 0.2405 -0.8857
vn 0.7902 0.2483 -0.5603
vn 0.7904 0.2405 -0.5635
vn -0.3810 0.1250 -0.9161
vn -0.3806 0.1208 -0.9168
vn 0.7918 0.1250 -0.5978
vn 0.7919 0.1208 -0.5986
vn -0.3745 0.0615 -0.9252
vn 0.7908 0.0615 -0.6090
vn -0.9076 -0.1625 -0.3870
vn -0.9193 -0.1840 -0.3480
vn -0.9453 -0.0986 -0.3111
vn -0.9394 -0.0862 -0.3318
vn 0.9882 -0.0183 0.1521
vn 0.9882 -0.0082 0.1529
vn 0.9299 -0.0082 0.3676
vn 0.9295 -0.0183 0.3683
vn 0.9299 -0.0362 0.3660
vn 0.9317 -0.0539 0.3593
vn 0.9348 -0.0709 0.3479
vn 0.9394 -0.0862 0.3318
vn 0.9453 -0.0986 0.3111
vn 0.9520 -0.1067 0.2868
vn 0.9593 -0.1096 0.2603
vn 0.9664 -0.1067 0.2338
vn 0.9728 -0.0986 0.2094
vn 0.9783 -0.0862 0.1886
vn 0.9825 -0.0709 0.1724
vn 0.9452 -0.2021 0.2565
vn 0.9577 -0.1975 0.2092
vn 0.8912 -0.1022 0.4420
vn 0.8980 -0.1346 0.4188
vn 0.9982 -0.0314 0.0516
vn 0.9691 -0.1840 0.1645
vn 0.9076 -0.1625 0.3870
vn 0.9985 -0.0156 0.0522
vn 0.9788 -0.1625 0.1249
vn 0.9193 -0.1840 0.3480
vn 0.8879 -0.0156 0.4597
vn 0.8873 -0.0314 0.4601
vn 0.9866 -0.1346 0.0926
vn 0.9321 -0.1975 0.3036
vn 0.8874 -0.0673 0.4560
vn -0.9299 -0.0082 -0.3676
vn -0.9295 -0.0183 -0.3683
vn -0.9299 -0.0362 -0.3660
vn -0.9317 -0.0539 -0.3593
vn -0.9348 -0.0709 -0.3479
vn -0.9520 -0.1067 -0.2868
vn -0.9593 -0.1096 -0.2603
vn -0.9664 -0.1067 -0.2338
vn -0.9728 -0.0986 -0.2094
vn -0.9783 -0.0862 -0.1886
vn -0.9825 -0.0709 -0.1724
vn -0.9855 -0.0539 -0.1610
vn -0.9874 -0.0362 -0.1543
vn -0.9882 -0.0183 -0.1521
vn -0.9882 -0.0082 -0.1529
vn -0.9691 -0.1840 -0.1645
vn -0.9788 -0.1625 -0.1249
vn -0.9982 -0.0314 -0.0516
vn -0.9985 -0.0156 -0.0522
vn -0.8980 -0.1346 -0.4188
vn -0.9577 -0.1975 -0.2092
vn -0.9962 -0.0673 -0.0551
vn -0.8912 -0.1022 -0.4420
vn -0.9452 -0.2021 -0.2565
vn -0.9924 -0.1022 -0.0691
vn -0.8874 -0.0673 -0.4560
vn -0.9321 -0.1975 -0.3036
vn -0.9866 -0.1346 -0.0926
vn -0.8873 -0.0314 -0.4601
vn -0.8879 -0.0156 -0.4597
vn -0.0749 0.1461 -0.9864
vn -0.0724 0.0729 -0.9947
vn -0.1282 0.1434 -0.9813
vn -0.1249 0.0714 -0.9896
vn 0.0694 0.0757 -0.9947
vn -0.0830 0.2928 -0.9526
vn -0.1379 0.2872 -0.9479
vn -0.0981 0.4400 -0.8926
vn -0.1550 0.4310 -0.8889
vn -0.1212 0.5850 -0.8019
vn -0.1806 0.5722 -0.8000
vn -0.1540 0.7214 -0.6752
vn -0.2159 0.7045 -0.6761
vn -0.1974 0.8376 -0.5093
vn -0.2613 0.8168 -0.5144
vn -0.2510 0.9178 -0.3078
vn -0.3155 0.8938 -0.3186
vn -0.3112 0.9466 -0.0844
vn -0.3748 0.9215 -0.1017
vn -0.3721 0.9178 0.1387
vn -0.4333 0.8938 0.1154
vn -0.4278 0.8376 0.3396
vn -0.4855 0.8168 0.3118
vn -0.4742 0.7214 0.5047
vn -0.5280 0.7045 0.4742
vn -0.5100 0.5850 0.6307
vn -0.5602 0.5722 0.5989
vn -0.5359 0.4400 0.7206
vn -0.5831 0.4310 0.6886
vn -0.5532 0.2928 0.7799
vn -0.5981 0.2872 0.7482
vn -0.5633 0.1461 0.8132
vn -0.6067 0.1434 0.7819
vn -0.5653 0.0729 0.8217
vn -0.6080 0.0714 0.7907
vn 0.4429 0.0757 -0.8934
vn 0.0830 0.2928 0.9526
vn 0.0981 0.4400 0.8926
vn 0.1212 0.5850 0.8019
vn 0.1540 0.7214 0.6752
vn 0.1974 0.8376 0.5093
vn 0.2510 0.9178 0.3078
vn 0.3112 0.9466 0.0844
vn 0.3721 0.9178 -0.1387
vn 0.4278 0.8376 -0.3396
vn 0.4742 0.7214 -0.5047
vn 0.5100 0.5850 -0.6307
vn 0.5359 0.4400 -0.7206
vn 0.5532 0.2928 -0.7799
vn 0.5633 0.1461 -0.8132
vn 0.5653 0.0729 -0.8217
vn 0.1282 0.1434 0.9813
vn 0.1249 0.0714 0.9896
vn 0.1379 0.2872 0.9479
vn 0.1550 0.4310 0.8889
vn 0.1806 0.5722 0.8000
vn 0.2159 0.7045 0.6761
vn 0.2613 0.8168 0.5144
vn 0.3155 0.8938 0.3186
vn 0.3748 0.9215 0.1017
vn 0.4333 0.8938 -0.1154
vn 0.4855 0.8168 -0.3118
vn 0.5280 0.7045 -0.4742
vn 0.5602 0.5722 -0.5989
vn 0.5831 0.4310 -0.6886
vn 0.5981 0.2872 -0.7482
vn 0.6067 0.1434 -0.7819
vn 0.6080 0.0714 -0.7907
vt 0.108604 0.362655
vt 0.108604 0.202633
vt 0.160269 0.202633
vt 0.160269 0.362655
vt 0.208159 0.202633
vt 0.208159 0.362655
vt 0.250433 0.202633
vt 0.250433 0.362655
vt 0.285468 0.202633
vt 0.285468 0.362655
vt 0.560754 0.362655
vt 0.560754 0.202633
vt 0.598731 0.202633
vt 0.598731 0.362655
vt 0.639921 0.202633
vt 0.639921 0.362655
vt 0.682743 0.202633
vt 0.682743 0.362655
vt 0.725549 0.202633
vt 0.725549 0.362655
vt 0.766696 0.202633
vt 0.766696 0.362655
vt 0.304518 0.363181
vt 0.304518 0.203175
vt 0.347045 0.202876
vt 0.347045 0.362883
vt 0.395098 0.202686
vt 0.395098 0.362692
vt 0.446829 0.202610
vt 0.446829 0.362616
vt 0.500252 0.202652
vt 0.500252 0.362658
vt 0.001851 0.182619
vt 0.055169 0.182619
vt 0.054689 0.192728
vt 0.001141 0.192727
vt 0.122166 0.601919
vt 0.169690 0.581833
vt 0.175641 0.601914
vt 0.132870 0.619992
vt 0.001961 0.362655
vt 0.001961 0.202633
vt 0.055150 0.202633
vt 0.055150 0.362655
vt 0.500018 0.552020
vt 0.500239 0.382663
vt 0.553428 0.382821
vt 0.555379 0.552184
vt 0.444280 0.551976
vt 0.446687 0.382620
vt 0.446687 0.182590
vt 0.444280 0.012979
vt 0.500018 0.013022
vt 0.500239 0.182632
vt 0.390305 0.552055
vt 0.394831 0.382696
vt 0.394831 0.182667
vt 0.390305 0.013058
vt 0.340169 0.552255
vt 0.346662 0.382887
vt 0.346662 0.182859
vt 0.340169 0.013257
vt 0.295799 0.552566
vt 0.304033 0.383185
vt 0.304033 0.183159
vt 0.295799 0.013568
vt 0.727320 0.552169
vt 0.725648 0.382666
vt 0.766894 0.382667
vt 0.770250 0.552169
vt 0.725648 0.182622
vt 0.727320 0.013119
vt 0.770250 0.013119
vt 0.766894 0.182622
vt 0.682657 0.552169
vt 0.682738 0.382666
vt 0.682738 0.182623
vt 0.682657 0.013119
vt 0.637979 0.552169
vt 0.639813 0.382665
vt 0.639813 0.182623
vt 0.637979 0.013119
vt 0.595003 0.552169
vt 0.598523 0.382666
vt 0.598523 0.182623
vt 0.595003 0.013119
vt 0.555379 0.552169
vt 0.560455 0.382666
vt 0.560455 0.182622
vt 0.555379 0.013119
vt 0.259245 0.552169
vt 0.250924 0.382667
vt 0.286043 0.382666
vt 0.295799 0.552169
vt 0.250924 0.182622
vt 0.259245 0.013119
vt 0.295799 0.013119
vt 0.286043 0.182622
vt 0.215138 0.552169
vt 0.208547 0.382667
vt 0.208547 0.182621
vt 0.215138 0.013120
vt 0.165172 0.552168
vt 0.160542 0.382668
vt 0.160542 0.182620
vt 0.165172 0.013120
vt 0.111267 0.552168
vt 0.108752 0.382669
vt 0.108752 0.182620
vt 0.111267 0.013120
vt 0.055495 0.552168
vt 0.055169 0.382669
vt 0.055495 0.013120
vt 0.000000 0.552168
vt 0.001851 0.382669
vt 0.000000 0.013120
vt 0.555379 0.013187
vt 0.553428 0.182790
vt 0.055858 0.565288
vt 0.002796 0.565288
vt 0.002796 0.000000
vt 0.055858 0.000000
vt 0.109184 0.565288
vt 0.109184 0.000000
vt 0.160724 0.565288
vt 0.160724 0.000000
vt 0.208499 0.565288
vt 0.208499 0.000000
vt 0.250673 0.565288
vt 0.250673 0.000000
vt 0.793099 0.656349
vt 0.819666 0.695651
vt 0.809614 0.699466
vt 0.784212 0.661888
vt 0.010872 0.695651
vt 0.037439 0.656349
vt 0.046326 0.661888
vt 0.020924 0.699466
vt 0.598822 0.565288
vt 0.560936 0.565288
vt 0.560936 0.000000
vt 0.598822 0.000000
vt 0.639913 0.565288
vt 0.639913 0.000000
vt 0.682632 0.565288
vt 0.682632 0.000000
vt 0.725336 0.565288
vt 0.725336 0.000000
vt 0.766384 0.565288
vt 0.766384 0.000000
vt 0.346701 0.565501
vt 0.304276 0.565799
vt 0.304276 0.000564
vt 0.346701 0.000266
vt 0.394639 0.565311
vt 0.394639 0.000076
vt 0.446246 0.565235
vt 0.446246 0.000000
vt 0.499541 0.565277
vt 0.499541 0.000042
vt 0.552474 0.565434
vt 0.552474 0.000199
vt 0.788786 0.707783
vt 0.765925 0.673963
vt 0.222051 0.590783
vt 0.275159 0.587024
vt 0.275159 0.978264
vt 0.222051 0.974506
vt 0.175641 0.963374
vt 0.132870 0.945296
vt 0.095380 0.920969
vt 0.064614 0.891325
vt 0.041752 0.857505
vt 0.027674 0.820808
vt 0.022920 0.782644
vt 0.027674 0.744480
vt 0.041752 0.707783
vt 0.064614 0.673963
vt 0.095380 0.644320
vt -0.000000 0.782644
vt 0.005282 0.740240
vt 0.122166 0.963369
vt 0.080511 0.936338
vt 0.221256 0.569465
vt 0.046326 0.903400
vt 0.274883 0.565288
vt 0.020924 0.865823
vt 0.274883 1.000000
vt 0.221256 0.995824
vt 0.080511 0.628950
vt 0.005282 0.825048
vt 0.169690 0.983455
vt 0.555379 0.587024
vt 0.608488 0.590783
vt 0.654897 0.601914
vt 0.697668 0.619992
vt 0.735158 0.644320
vt 0.802865 0.744480
vt 0.807618 0.782644
vt 0.802865 0.820808
vt 0.788786 0.857505
vt 0.765925 0.891325
vt 0.735158 0.920968
vt 0.697668 0.945296
vt 0.654897 0.963374
vt 0.608488 0.974506
vt 0.555379 0.978264
vt 0.809614 0.865823
vt 0.784212 0.903400
vt 0.609282 0.995824
vt 0.555655 1.000000
vt 0.750027 0.628950
vt 0.825256 0.825048
vt 0.660848 0.983455
vt 0.708372 0.601919
vt 0.830538 0.782644
vt 0.708372 0.963369
vt 0.660848 0.581833
vt 0.825256 0.740240
vt 0.750027 0.936338
vt 0.609282 0.569465
vt 0.555655 0.565288
vt 0.500759 0.372507
vt 0.554178 0.372667
vt 0.500759 0.192692
vt 0.554178 0.192849
vt 0.553313 0.202810
vt 0.446664 0.372461
vt 0.446664 0.192653
vt 0.394230 0.372533
vt 0.394230 0.192735
vt 0.345452 0.372720
vt 0.345452 0.192935
vt 0.302198 0.373017
vt 0.302198 0.193245
vt 0.726831 0.372532
vt 0.768782 0.372538
vt 0.726831 0.192756
vt 0.768782 0.192750
vt 0.683095 0.372527
vt 0.683095 0.192761
vt 0.639285 0.372526
vt 0.639285 0.192763
vt 0.597144 0.372527
vt 0.597144 0.192761
vt 0.558341 0.372532
vt 0.558341 0.192756
vt 0.252793 0.372538
vt 0.288508 0.372532
vt 0.252793 0.192750
vt 0.288508 0.192756
vt 0.209795 0.372545
vt 0.209795 0.192743
vt 0.161182 0.372551
vt 0.161182 0.192737
vt 0.108816 0.372556
vt 0.108816 0.192732
vt 0.054689 0.372560
vt 0.001141 0.372562
vt 0.553313 0.362816
s 1
usemtl Material.001
f 152/1/1 149/2/2 153/3/3 156/4/4
f 156/4/4 153/3/3 157/5/5 160/6/6
f 160/6/6 157/5/5 161/7/7 164/8/8
f 164/8/8 161/7/7 165/9/9 168/10/10
f 168/11/10 165/12/9 169/13/11 172/14/12
f 172/14/12 169/13/11 173/15/13 176/16/14
f 176/16/14 173/15/13 177/17/15 180/18/16
f 180/18/16 177/17/15 181/19/17 184/20/18
f 184/20/18 181/19/17 185/21/19 188/22/20
f 188/23/20 185/24/19 189/25/21 192/26/22
f 192/26/22 189/25/21 193/27/23 196/28/24
f 196/28/24 193/27/23 197/29/25 200/30/26
f 200/30/26 197/29/25 201/31/27 204/32/28
f 141/33/29 146/34/30 19/35/31 18/36/32
f 53/37/33 49/38/34 105/39/35 106/40/36
f 143/41/37 142/42/38 145/43/39 148/44/40
f 100/45/41 203/46/42 137/47/43 36/48/44
f 96/49/45 199/50/46 203/46/42 100/45/41
f 198/51/47 98/52/48 102/53/49 202/54/50
f 92/55/51 195/56/52 199/50/46 96/49/45
f 194/57/53 94/58/54 98/52/48 198/51/47
f 88/59/55 191/60/56 195/56/52 92/55/51
f 190/61/57 90/62/58 94/58/54 194/57/53
f 84/63/59 187/64/60 191/60/56 88/59/55
f 186/65/61 86/66/62 90/62/58 190/61/57
f 80/67/63 183/68/64 187/69/60 84/70/59
f 182/71/65 82/72/66 86/73/62 186/74/61
f 76/75/67 179/76/68 183/68/64 80/67/63
f 178/77/69 78/78/70 82/72/66 182/71/65
f 72/79/71 175/80/72 179/76/68 76/75/67
f 174/81/73 74/82/74 78/78/70 178/77/69
f 68/83/75 171/84/76 175/80/72 72/79/71
f 170/85/77 70/86/78 74/82/74 174/81/73
f 64/87/79 167/88/80 171/84/76 68/83/75
f 166/89/81 66/90/82 70/86/78 170/85/77
f 60/91/83 163/92/84 167/93/80 64/94/79
f 162/95/85 62/96/86 66/97/82 166/98/81
f 56/99/87 159/100/88 163/92/84 60/91/83
f 158/101/89 58/102/90 62/96/86 162/95/85
f 52/103/91 155/104/92 159/100/88 56/99/87
f 154/105/93 54/106/94 58/102/90 158/101/89
f 48/107/95 151/108/96 155/104/92 52/103/91
f 150/109/97 50/110/98 54/106/94 154/105/93
f 44/111/99 147/112/100 151/108/96 48/107/95
f 146/34/30 46/113/101 50/110/98 150/109/97
f 39/114/102 144/115/103 147/112/100 44/111/99
f 141/33/29 42/116/104 46/113/101 146/34/30
f 148/44/40 145/43/39 149/2/2 152/1/1
f 202/54/50 102/53/49 37/117/105 140/118/106
f 39/114/107 44/111/108 43/119/109 40/120/107
f 46/113/110 42/116/111 41/121/111 45/122/112
f 44/111/108 48/107/113 47/123/114 43/119/109
f 50/110/115 46/113/110 45/122/112 49/124/116
f 48/107/113 52/103/117 51/125/118 47/123/114
f 54/106/119 50/110/115 49/124/116 53/126/120
f 52/103/117 56/99/121 55/127/122 51/125/118
f 58/102/123 54/106/119 53/126/120 57/128/124
f 56/99/121 60/91/125 59/129/126 55/127/122
f 62/96/127 58/102/123 57/128/124 61/130/128
f 60/131/125 64/132/129 63/133/130 59/134/126
f 66/135/131 62/136/127 61/137/128 65/138/132
f 64/87/129 68/83/133 67/139/134 63/140/130
f 70/86/135 66/90/131 65/141/132 69/142/136
f 68/83/133 72/79/137 71/143/137 67/139/134
f 74/82/138 70/86/135 69/142/136 73/144/138
f 72/79/137 76/75/139 75/145/140 71/143/137
f 78/78/141 74/82/138 73/144/138 77/146/142
f 76/75/139 80/67/143 79/147/144 75/145/140
f 82/72/145 78/78/141 77/146/142 81/148/146
f 80/67/143 84/70/147 83/149/148 79/147/144
f 86/73/149 82/72/145 81/148/146 85/150/150
f 84/63/147 88/59/151 87/151/152 83/152/148
f 90/62/153 86/66/149 85/153/150 89/154/154
f 88/59/151 92/55/155 91/155/156 87/151/152
f 94/58/157 90/62/153 89/154/154 93/156/158
f 92/55/155 96/49/159 95/157/160 91/155/156
f 98/52/161 94/58/157 93/156/158 97/158/162
f 96/49/159 100/45/163 99/159/164 95/157/160
f 102/53/165 98/52/161 97/158/162 101/160/166
f 100/45/163 36/48/167 35/161/167 99/159/164
f 37/117/168 102/53/165 101/160/166 38/162/168
f 59/134/169 63/133/170 126/163/171 125/164/172
f 104/165/173 103/166/174 119/167/175 118/168/176 117/169/177 116/170/178 115/171/179 114/172/180 113/173/181 112/174/182 111/175/183 110/176/184 109/177/185 108/178/186 107/179/187 106/40/36 105/39/35
f 73/180/188 69/181/189 110/176/184 111/175/183
f 93/182/190 89/183/191 115/171/179 116/170/178
f 49/38/34 45/184/192 104/165/173 105/39/35
f 69/181/189 65/138/193 109/177/185 110/176/184
f 89/183/191 85/185/194 114/172/180 115/171/179
f 45/184/192 41/186/195 103/166/174 104/165/173
f 65/138/193 61/137/196 108/178/186 109/177/185
f 85/185/194 81/187/197 113/173/181 114/172/180
f 38/188/198 101/189/199 118/168/176 119/167/175
f 61/137/196 57/190/200 107/179/187 108/178/186
f 81/187/197 77/191/201 112/174/182 113/173/181
f 101/189/199 97/192/202 117/169/177 118/168/176
f 57/190/200 53/37/33 106/40/36 107/179/187
f 77/191/201 73/180/188 111/175/183 112/174/182
f 97/192/202 93/182/190 116/170/178 117/169/177
f 121/193/203 120/194/204 122/195/205 123/196/206 124/197/207 125/164/172 126/163/171 127/198/208 128/199/209 129/200/210 130/201/211 131/202/212 132/203/213 133/204/214 134/205/215 135/206/216 136/207/217
f 79/208/218 83/209/219 131/202/212 130/201/211
f 99/210/220 35/211/221 136/207/217 135/206/216
f 55/212/222 59/134/169 125/164/172 124/197/207
f 75/213/223 79/208/218 130/201/211 129/200/210
f 95/214/224 99/210/220 135/206/216 134/205/215
f 51/215/225 55/212/222 124/197/207 123/196/206
f 71/216/226 75/213/223 129/200/210 128/199/209
f 91/217/227 95/214/224 134/205/215 133/204/214
f 47/218/228 51/215/225 123/196/206 122/195/205
f 67/219/229 71/216/226 128/199/209 127/198/208
f 87/220/230 91/217/227 133/204/214 132/203/213
f 43/221/231 47/218/228 122/195/205 120/194/204
f 63/133/170 67/219/229 127/198/208 126/163/171
f 40/222/232 43/221/231 120/194/204 121/193/203
f 83/209/219 87/220/230 132/203/213 131/202/212
f 17/223/233 16/224/234 137/47/43 203/46/42
f 34/225/235 33/226/236 139/227/237 201/31/27
f 15/228/238 17/223/233 203/46/42 199/50/46
f 32/229/239 34/225/235 201/31/27 197/29/25
f 14/230/240 15/228/238 199/50/46 195/56/52
f 31/231/241 32/229/239 197/29/25 193/27/23
f 13/232/242 14/230/240 195/56/52 191/60/56
f 30/233/243 31/231/241 193/27/23 189/25/21
f 12/234/244 13/232/242 191/60/56 187/64/60
f 29/235/245 30/233/243 189/25/21 185/24/19
f 11/236/246 12/237/244 187/69/60 183/68/64
f 28/238/247 29/239/245 185/21/19 181/19/17
f 10/240/248 11/236/246 183/68/64 179/76/68
f 27/241/249 28/238/247 181/19/17 177/17/15
f 9/242/250 10/240/248 179/76/68 175/80/72
f 26/243/251 27/241/249 177/17/15 173/15/13
f 8/244/252 9/242/250 175/80/72 171/84/76
f 25/245/253 26/243/251 173/15/13 169/13/11
f 7/246/254 8/244/252 171/84/76 167/88/80
f 24/247/255 25/245/253 169/13/11 165/12/9
f 6/248/256 7/249/254 167/93/80 163/92/84
f 23/250/257 24/251/255 165/9/9 161/7/7
f 5/252/258 6/248/256 163/92/84 159/100/88
f 22/253/259 23/250/257 161/7/7 157/5/5
f 4/254/260 5/252/258 159/100/88 155/104/92
f 21/255/261 22/253/259 157/5/5 153/3/3
f 3/256/262 4/254/260 155/104/92 151/108/96
f 20/257/263 21/255/261 153/3/3 149/2/2
f 2/258/264 3/256/262 151/108/96 147/112/100
f 19/35/265 20/257/263 149/2/2 145/43/39
f 1/259/266 2/258/264 147/112/100 144/115/103
f 18/36/267 19/35/265 145/43/39 142/42/38
f 204/32/28 201/31/27 139/227/237 138/260/268
f 146/34/30 150/109/97 20/257/269 19/35/31
f 150/109/97 154/105/93 21/255/270 20/257/269
f 154/105/93 158/101/89 22/253/271 21/255/270
f 158/101/89 162/95/85 23/250/272 22/253/271
f 162/95/85 166/98/81 24/251/273 23/250/272
f 166/89/81 170/85/77 25/245/274 24/247/273
f 170/85/77 174/81/73 26/243/275 25/245/274
f 174/81/73 178/77/69 27/241/276 26/243/275
f 178/77/69 182/71/65 28/238/277 27/241/276
f 182/71/65 186/74/61 29/239/278 28/238/277
f 186/65/61 190/61/57 30/233/279 29/235/278
f 190/61/57 194/57/53 31/231/280 30/233/279
f 194/57/53 198/51/47 32/229/281 31/231/280
f 198/51/47 202/54/50 34/225/282 32/229/281
f 202/54/50 140/118/106 33/226/283 34/225/282
f 143/41/37 148/44/40 2/258/284 1/259/285
f 148/44/40 152/1/1 3/256/286 2/258/284
f 152/1/1 156/4/4 4/254/287 3/256/286
f 156/4/4 160/6/6 5/252/288 4/254/287
f 160/6/6 164/8/8 6/248/289 5/252/288
f 164/8/8 168/10/10 7/249/290 6/248/289
f 168/11/10 172/14/12 8/244/291 7/246/290
f 172/14/12 176/16/14 9/242/292 8/244/291
f 176/16/14 180/18/16 10/240/293 9/242/292
f 180/18/16 184/20/18 11/236/294 10/240/293
f 184/20/18 188/22/20 12/237/295 11/236/294
f 188/23/20 192/26/22 13/232/296 12/234/295
f 192/26/22 196/28/24 14/230/297 13/232/296
f 196/28/24 200/30/26 15/228/298 14/230/297
f 200/30/26 204/32/28 17/223/299 15/228/298
f 204/32/28 138/260/268 16/224/300 17/223/299
